<?xml version="1.0" encoding="utf-8"?>
<!-- Generator: Adobe Illustrator 26.5.3, SVG Export Plug-In . SVG Version: 6.00 Build 0)  -->
<svg version="1.1" id="Layer_1" xmlns="http://www.w3.org/2000/svg" xmlns:xlink="http://www.w3.org/1999/xlink" x="0px" y="0px"
	 viewBox="0 0 26 26" style="enable-background:new 0 0 26 26;" xml:space="preserve">
<style type="text/css">
	.st0{fill:none;}
</style>
<g>
	<rect class="st0" width="26" height="26"/>
	<path id="Icon_open-pin" d="M8.6,1.5C7.9,1.6,7.4,2.3,7.5,3S8.3,4.2,9,4.1c0,0,0,0,0,0h0.2v7.4H7.7c-1.4,0-2.5,1.1-2.5,2.5h6.5
		v10.5h1.1h1.4V14h6.5c0-1.4-1.1-2.5-2.5-2.5h-1.4V4H17c0.7,0,1.3-0.6,1.3-1.3S17.7,1.5,17,1.5H9c-0.1,0-0.2,0-0.2,0
		C8.7,1.5,8.7,1.5,8.6,1.5L8.6,1.5z" fill="#ffffff"/>
</g>
</svg>
