<?xml version="1.0" encoding="utf-8"?>
<!-- Generator: Adobe Illustrator 26.4.1, SVG Export Plug-In . SVG Version: 6.00 Build 0)  -->
<svg version="1.1" id="Layer_1" xmlns="http://www.w3.org/2000/svg" xmlns:xlink="http://www.w3.org/1999/xlink" x="0px" y="0px"
	 viewBox="0 0 26 26" style="enable-background:new 0 0 26 26;" xml:space="preserve">
<style type="text/css">
	.st0{fill:none;}
</style>
<g>
	<rect class="st0" width="26" height="26"/>
	<path d="M19.4,1.5H6.6c-2.8,0-5.1,2.3-5.1,5.1v12.8c0,2.8,2.3,5.1,5.1,5.1h12.8c2.8,0,5.1-2.3,5.1-5.1V6.6
		C24.5,3.8,22.2,1.5,19.4,1.5z M14.5,19.1c-0.2,1.6-0.3,2-0.7,2.3c-0.4,0.4-1,0.5-1.6,0.3h0c-0.7-0.2-0.8-0.6-1.1-2.5
		c-0.3-2.3-0.4-3.7-0.2-4.1c0.3-0.6,0.9-0.9,1.9-0.9l0,0c0.9,0,1.6,0.3,1.9,0.9C14.9,15.4,14.9,16.8,14.5,19.1z M9.6,14.9l0.4,0.5
		V16c0,0.3,0,0.6-0.1,0.6c0,0-0.3-0.2-0.5-0.3l0,0c-0.8-0.6-1.5-1.8-1.8-2.9c-0.2-0.7-0.2-1.9,0-2.6c0.5-1.8,1.8-3.2,3.7-3.9
		c0.4-0.1,1.1-0.2,1.7-0.2l0,0c0.4,0,0.8,0,1.1,0.1c2.7,0.6,4.6,3.3,4.2,5.9c-0.1,1.1-0.5,1.9-1.2,2.8c-0.3,0.4-1.1,1.1-1.2,1.1
		c0,0,0-0.3,0-0.6v-0.6l0.4-0.5c1.5-1.8,1.4-4.3-0.2-6c-0.6-0.6-1.4-1-2.3-1.2c-0.6-0.1-0.7-0.1-1.4,0c-1,0.2-1.7,0.5-2.4,1.2
		C8.2,10.6,8.1,13.1,9.6,14.9z M13.7,9.7c0.5,0.2,0.9,0.7,1,1.2c0.4,1.5-1.2,2.8-2.6,2.2h0c-0.7-0.3-1.1-0.9-1.1-1.7
		c0-0.7,0.4-1.3,1.1-1.7c0.2-0.1,0.5-0.2,0.8-0.2l0,0C13.2,9.5,13.5,9.6,13.7,9.7z M20.8,13.4c-0.4,2-1.5,3.8-3.1,5.1
		c-0.6,0.4-2,1.2-2.2,1.2c-0.1,0-0.1-0.1-0.1-0.4c0.1-0.6,0.1-0.7,0.5-0.8c0.5-0.2,1.4-0.8,1.9-1.4c0.9-0.9,1.6-2.1,1.9-3.4
		c0.2-0.8,0.2-2.5,0-3.4c-0.7-2.6-2.8-4.6-5.4-5.1c-0.7-0.2-2.1-0.2-2.9,0C8.8,5.7,6.7,7.8,6,10.5c-0.2,0.7-0.2,2.5,0,3.2
		C6.5,15.4,7.6,17,9.1,18c0.3,0.2,0.6,0.4,0.8,0.5c0.3,0.1,0.4,0.3,0.5,0.8c0,0.3,0,0.4-0.1,0.4c-0.1,0-0.4-0.2-0.9-0.4l0,0
		c-2.4-1.2-3.9-3.1-4.4-5.8c-0.1-0.7-0.2-2.3,0-2.9c0.3-1.7,1-3,2.1-4.1C8.6,4.8,10.6,4,12.9,4c2.2,0,4.3,0.9,5.8,2.5
		c1.2,1.2,1.8,2.5,2.2,4.2C21,11.2,21,12.8,20.8,13.4z"/>
</g>
</svg>
