<?xml version="1.0" encoding="utf-8"?>
<!-- Generator: Adobe Illustrator 26.4.1, SVG Export Plug-In . SVG Version: 6.00 Build 0)  -->
<svg version="1.1" id="Layer_1" xmlns="http://www.w3.org/2000/svg" xmlns:xlink="http://www.w3.org/1999/xlink" x="0px" y="0px"
	 viewBox="0 0 26 26" style="enable-background:new 0 0 26 26;" xml:space="preserve">
<style type="text/css">
	.st0{fill:none;}
</style>
<g>
	<rect class="st0" width="26" height="26"/>
	<path id="Icon_awesome-spotify" d="M13,1.5C6.6,1.5,1.5,6.6,1.5,13S6.6,24.5,13,24.5S24.5,19.4,24.5,13l0,0
		C24.5,6.6,19.4,1.5,13,1.5z M17.7,18.4c-0.2,0-0.4-0.1-0.5-0.2c-2.9-1.7-6.3-1.8-9.6-1.1c-0.2,0.1-0.4,0.1-0.6,0.1
		c-0.4,0-0.7-0.3-0.7-0.7c0,0,0,0,0,0c0-0.4,0.2-0.7,0.6-0.8c3.8-0.8,7.7-0.8,11,1.2c0.3,0.1,0.5,0.4,0.4,0.8
		C18.4,18.1,18.1,18.4,17.7,18.4C17.7,18.4,17.7,18.4,17.7,18.4z M18.9,15.4c-0.2,0-0.4-0.1-0.6-0.2C15,13.3,11,12.8,7.3,13.8
		c-0.2,0.1-0.4,0.1-0.6,0.1c-0.5,0-0.9-0.4-0.9-0.9c0-0.5,0.3-0.9,0.7-1c1.5-0.4,3-0.6,4.5-0.6c2.9,0,5.7,0.7,8.2,2.1
		c0.3,0.2,0.5,0.5,0.5,0.9C19.8,15,19.4,15.4,18.9,15.4C18.9,15.4,18.9,15.4,18.9,15.4L18.9,15.4z M20.4,11.8
		c-0.2,0-0.4-0.1-0.6-0.2c-3.3-2-9.2-2.4-13-1.4c-0.2,0.1-0.4,0.1-0.6,0.1c-0.6,0-1.1-0.5-1.1-1.1c0,0,0,0,0,0c0-0.5,0.3-1,0.8-1.1
		c1.8-0.5,3.6-0.7,5.5-0.7c3.4,0,6.9,0.7,9.5,2.2c0.4,0.2,0.6,0.6,0.6,1C21.4,11.4,21,11.8,20.4,11.8C20.4,11.8,20.4,11.8,20.4,11.8
		L20.4,11.8z"/>
</g>
</svg>
