<?xml version="1.0" encoding="utf-8"?>
<!-- Generator: Adobe Illustrator 26.5.3, SVG Export Plug-In . SVG Version: 6.00 Build 0)  -->
<svg version="1.1" id="Layer_1" xmlns="http://www.w3.org/2000/svg" xmlns:xlink="http://www.w3.org/1999/xlink" x="0px" y="0px"
	 width="288px" height="288px" viewBox="0 0 288 288" style="enable-background:new 0 0 288 288;" xml:space="preserve">
<g>
	<rect style="fill:none;" width="288" height="288"/>
	<g id="WX-Icons_x2F_Brand_x2F_Color_x2F_24--Ice-_x40_DefaultSymbols.ICONS_x5F_Forecast_x5F_Color">
		<g id="Ice" transform="translate(68.000000, 25.000000)">
			<path id="Path" style="fill:#288ADB;" d="M26.8-25H15.6l-34.6,53.1l34.5,54.8h11.3l34.6-54.8L26.8-25z M23.6-15.9l-2.4-1.6
				l-2.4,1.6v0.2l1.6,2.6h1.5l1.7-2.6V-15.9z M21.2-12l26.3,40.2L21.2,69.9L-5.1,28.3L21.2-12z M18.7,73.7v0.3l2.4,1.5l2.4-1.5v-0.3
				L22,71.2h-1.6L18.7,73.7z"/>
			<path id="Path_00000050630812366617517010000015136573428986689418_" style="fill:#288ADB;" d="M26.8,155.1H15.6l-34.6,53.1
				L15.5,263h11.3l34.6-54.8L26.8,155.1z M23.6,164.2l-2.4-1.6l-2.4,1.6v0.2l1.6,2.6h1.5l1.6-2.6v-0.2H23.6z M47.5,208.4L21.2,250
				l-26.3-41.6l26.3-40.2L47.5,208.4z M18.7,253.8v0.3l2.4,1.5l2.4-1.5v-0.3l-1.6-2.6h-1.6L18.7,253.8z"/>
			<path id="Path_00000000941151601512834810000011687843205267830408_" style="fill:#288ADB;" d="M109,22.3H93.4l-62.2,95.5
				l62.1,98.5H109l62.1-98.5L109,22.3z M101.2,31.6l-0.1,0.1l0.1,0.2l0.1-0.2L101.2,31.6z M157,117.8l-54.5,86.6h-2.7l-54.6-86.6
				l54.5-83.7h2.8L157,117.8z M100.9,206.8l0.2,0.1l0.2-0.1l-0.2-0.3L100.9,206.8z"/>
		</g>
	</g>
</g>
</svg>
