<?xml version="1.0" encoding="utf-8"?>
<!-- Generator: Adobe Illustrator 26.5.3, SVG Export Plug-In . SVG Version: 6.00 Build 0)  -->
<svg version="1.1" id="Layer_1" xmlns="http://www.w3.org/2000/svg" xmlns:xlink="http://www.w3.org/1999/xlink" x="0px" y="0px"
	 width="288px" height="288px" viewBox="0 0 288 288" style="enable-background:new 0 0 288 288;" xml:space="preserve">
<g>
	<rect style="fill:none;" width="288" height="288"/>
	<g id="WX-Icons_x2F_Brand_x2F_Color_x2F_30--Hot-_x40_DefaultSymbols.ICONS_x5F_Forecast_x5F_Color">
		<g id="Hot" transform="translate(94.000000, 13.000000)">
			<path id="Oval" style="fill:#FF8700;" d="M50,243.7c14.5,0,26.2-11.7,26.2-26.2S64.5,191.3,50,191.3S23.8,203,23.8,217.5
				S35.5,243.7,50,243.7z M50,233.2c-8.7,0-15.8-7.1-15.8-15.8s7.1-15.8,15.8-15.8s15.8,7.1,15.8,15.8S58.7,233.2,50,233.2z"/>
			<path id="Path" style="fill:#686763;" d="M81.4,18.5C81.4,1.2,67.4-13,50-13S18.6,1.2,18.6,18.5v150.6
				c-20.8,13.5-30.8,39-24.2,63.2C1.2,257.4,24,275,50,275s49-17.6,55.6-42.7c6.4-24.2-3.4-49.7-24.2-63.2V18.5z M71,18.5v156.6
				l2.6,1.5c18.5,10.7,27.5,32.5,22,53.1S71.4,264.5,50,264.5s-40-14.4-45.6-34.9s3.5-42.4,22-53.1l2.6-1.5V18.5
				C29.1,6.9,38.5-2.4,50-2.4S71,6.9,71,18.5z"/>
			<polygon id="Path_00000176044951474534475440000012036963646475527088_" style="fill:#686763;" points="102.2,23.7 76.2,23.7 
				76.2,34.2 102.2,34.2 			"/>
			<polygon id="Path_00000070823847298356721270000009832417216761121171_" style="fill:#686763;" points="102.2,60.4 76.2,60.4 
				76.2,70.8 102.2,70.8 			"/>
			<polygon id="Path_00000178170663824729289550000014580101811920363145_" style="fill:#686763;" points="102.2,97 76.2,97 
				76.2,107.5 102.2,107.5 			"/>
			<polygon id="Path_00000170239196263964690170000003350658552384546454_" style="fill:#FF8700;" points="55.3,196.4 55.3,23.6 
				44.7,23.6 44.7,196.4 			"/>
		</g>
	</g>
</g>
</svg>
