<?xml version="1.0" encoding="utf-8"?>
<!-- Generator: Adobe Illustrator 26.5.3, SVG Export Plug-In . SVG Version: 6.00 Build 0)  -->
<svg version="1.1" id="Layer_1" xmlns="http://www.w3.org/2000/svg" xmlns:xlink="http://www.w3.org/1999/xlink" x="0px" y="0px"
	 width="288px" height="288px" viewBox="0 0 288 288" style="enable-background:new 0 0 288 288;" xml:space="preserve">
<g>
	<rect style="fill:none;" width="288" height="288"/>
	<g id="WX-Icons_x2F_Brand_x2F_Color_x2F_34--Mostly-Clear-Night-_x40_DefaultSymbols.ICONS_x5F_Forecast_x5F_Color">
		<g id="Mostly-Clear" transform="translate(29.000000, 34.000000)">
			<path id="Path" style="fill:#686763;" d="M101.4,108.7l10.3-4.7C93.2,63.5,97.8,16.1,123.7-20l-5.4-9
				C50.1-18.6-0.4,39.9-0.7,108.9c0,6.2,0.5,12.4,1.2,18.5l11.3-1.5c-0.7-5.7-1.1-11.4-1.1-17.1c0.2-59,40.3-109.6,96.4-124
				C85.4,22.6,83,68.7,101.4,108.7z"/>
			<path id="Path_00000001660900574237007080000004204908735727787163_" style="fill:#686763;" d="M138.3,237.5
				c-45.2-0.5-87-24.6-110-63.5l-9.8,5.8c25.1,42.4,70.4,68.5,119.5,69c49.2,0.5,95.1-24.7,121-66.5l-6.1-8.5
				c-44.1,9.9-90.1-4.6-120.6-37.9l-8.4,7.6c30,32.9,74.1,49,117.8,43.7C217.5,219.1,179.1,238,138.3,237.5z"/>
			<path id="Path_00000034778491316680052780000012006108702886798012_" style="fill:#BABABA;" d="M34.9,83.5
				c-18.4,6.2-31.6,22.3-34.2,41.3h-2.2h-0.1c-15.4,0.7-27.5,13.4-27.5,28.9s12.1,28.2,27.5,28.9h0.1h92.8
				c15.7,0.8,30.5-7.1,38.6-20.6c8.1-13.6,8.1-30.4,0-44c-7.1-11.7-19.4-19.3-32.8-20.5v0h-3.5c-0.1,0-0.2,0-0.2,0h-4.2
				C75.6,82.5,54.3,76.9,34.9,83.5z M85.8,109.3l5.9-0.4c11.5-0.6,22.5,5.2,28.5,15c5.9,9.9,5.9,22.3,0,32.2
				c-5.9,9.9-17,15.7-28.5,15h-0.1H-1.1c-9.3-0.5-16.6-8.2-16.6-17.6c0-9.3,7.3-17.1,16.6-17.6h12.6l0.1-5.4
				c0.5-16.6,11.3-31.1,27-36.5s33.1-0.2,43.6,12.7l1.7,2.1h1.9V109.3z"/>
		</g>
	</g>
</g>
</svg>
