<?xml version="1.0" encoding="utf-8"?>
<!-- Generator: Adobe Illustrator 26.5.3, SVG Export Plug-In . SVG Version: 6.00 Build 0)  -->
<svg version="1.1" id="Layer_1" xmlns="http://www.w3.org/2000/svg" xmlns:xlink="http://www.w3.org/1999/xlink" x="0px" y="0px"
	 width="288px" height="288px" viewBox="0 0 288 288" style="enable-background:new 0 0 288 288;" xml:space="preserve">
<g>
	<rect style="fill:none;" width="288" height="288"/>
	<g id="WX-Icons_x2F_Brand_x2F_Color_x2F_35--Partly-Cloudy-Night-_x40_DefaultSymbols.ICONS_x5F_Forecast_x5F_Color">
		<g id="Partly-Cloudy" transform="translate(31.000000, 40.000000)">
			<path id="Path" style="fill:#686763;" d="M98,77.8l10.6-2.5c-7.5-33.1-0.5-67.8,19.3-95.2l-5.2-8.5C86.9-23.1,54.8-3.5,33.9,26
				S4.8,92.2,11.4,127.7l10.6-2c-6-32.6,1.4-66.4,20.7-93.3C59.5,8.7,84.1-8.2,112-15.2C95.9,12.7,90.9,45.9,98,77.8z"/>
			<path id="Path_00000059303351414269533850000000674505166097919135_" style="fill:#686763;" d="M156.7,224.7
				c-37.6,4.2-75-9.2-101.6-36.3l-7.7,7.6c28.8,29.4,69.5,43.9,110.4,39.5c40.9-4.4,77.5-27.5,99.2-62.5l-5.8-8.1
				c-24.3,5.4-49.8,3.2-72.9-6.5l-4.2,10c21,8.9,43.9,11.9,66.5,9.2C220.4,204,190,221,156.7,224.7z"/>
			<path id="Path_00000096045591558044218780000007968039927811935664_" style="fill:#BABABA;" d="M127.1,88h3.9
				c20-0.6,38.7,9.7,48.9,26.9s10.2,38.7,0,56s-28.9,27.5-48.9,26.9H7c-13.4,0.5-26.1-6.4-32.8-17.8c-6.9-11.6-6.9-25.9,0-37.5
				c6.9-11.6,19.4-18.3,32.8-17.8h4.5c2.7-25.6,20-47.3,44.6-55.7C81.6,60.2,109.7,67.8,127.1,88z M59.6,79c-22,7.4-37,27.8-37.6,51
				l-0.1,5.3h-15H6.6c-9.5-0.4-18.4,4.4-23.2,12.5c-4.9,8.1-4.9,18.3,0,26.4s13.8,13,23.2,12.5h0.2h124.3h0.1
				c16.1,0.5,31.1-7.7,39.4-21.6c8.2-13.9,8.2-31.1,0-44.9c-8.2-13.8-23.2-22.1-39.4-21.6l-0.1-3.8v3.8H122l-1.6-2
				C105.9,78.6,81.6,71.5,59.6,79z M131.3,88L131.3,88v5.4V95V88z"/>
		</g>
	</g>
</g>
</svg>
