<?xml version="1.0" encoding="utf-8"?>
<!-- Generator: Adobe Illustrator 26.5.3, SVG Export Plug-In . SVG Version: 6.00 Build 0)  -->
<svg version="1.1" id="Layer_1" xmlns="http://www.w3.org/2000/svg" xmlns:xlink="http://www.w3.org/1999/xlink" x="0px" y="0px"
	 width="288px" height="288px" viewBox="0 0 288 288" style="enable-background:new 0 0 288 288;" xml:space="preserve">
<g>
	<rect style="fill:none;" width="288" height="288"/>
	<g id="WX-Icons_x2F_Brand_x2F_Color_x2F_37--Hazy-Night-_x40_DefaultSymbols.ICONS_x5F_Forecast_x5F_Color">
		<g id="Hazy-Moonlight" transform="translate(19.000000, 29.000000)">
			<polygon id="Path" style="fill:#BABABA;" points="-19,251.4 269,251.4 269,240.2 -19,240.2 			"/>
			<path id="Path_00000150780771066946541520000000165817046840933818_" style="fill:#686763;" d="M101.9,251.4h62.8l1.3-0.1
				c35.9-8.6,67-31,86.5-62.4l-6.1-8.5c-50.3,11.5-102.3-9.3-130.9-52.2s-27.8-98.8,2.1-140.8l-5.4-8.8
				C46.2-11.7-3.6,43.5-6.4,110.2s42.1,125.9,107.1,141.1L101.9,251.4z M4.9,110.6C7.3,53.8,46.9,6,101.1-7.8
				c-25.2,44.2-23.6,99.4,5,142.3c28.6,42.9,78.8,65.5,129.2,59.3c-17.8,22.9-42.9,39.4-71.4,46.4h-61.4
				C43.3,226,2.3,171.7,4.9,110.6z"/>
			<polygon id="Path_00000174560984948393488780000009366644013369634715_" style="fill:#BABABA;" points="99.6,166.7 269,166.7 
				269,155.5 99.6,155.5 			"/>
			<polygon id="Path_00000005952908281640499110000000893761442858081450_" style="fill:#BABABA;" points="-19,206.1 150.4,206.1 
				150.4,194.9 -19,194.9 			"/>
		</g>
	</g>
</g>
</svg>
