<?xml version="1.0" encoding="utf-8"?>
<!-- Generator: Adobe Illustrator 26.5.3, SVG Export Plug-In . SVG Version: 6.00 Build 0)  -->
<svg version="1.1" id="Layer_1" xmlns="http://www.w3.org/2000/svg" xmlns:xlink="http://www.w3.org/1999/xlink" x="0px" y="0px"
	 width="288px" height="288px" viewBox="0 0 288 288" style="enable-background:new 0 0 288 288;" xml:space="preserve">
<g>
	<rect style="fill:none;" width="288" height="288"/>
	<g id="WX-Icons_x2F_Brand_x2F_Color_x2F_40--Mostly-Cloudy-w-Showers-Night-_x40_DefaultSymbols.ICONS_x5F_Forecast_x5F_Color">
		<g id="Mostly-cloudy-w--Showers" transform="translate(15.000000, 6.000000)">
			<path id="Path" style="fill:#686763;" d="M188.7,73.8c13.4,20.1,36.4,31.5,60,30.4c-7.3,8-16.8,14-27.2,17.3l2.8,9.4
				c16.5-5,30.5-15.9,39.5-30.5l-5.3-7.4c-23.7,5.4-48.3-4.5-61.7-24.7c-13.5-20.2-13.1-46.7,0.9-66.5L192.9-6
				c-31.3,4.8-55.7,29.8-59.5,61.3l9.8,1.2c2.8-23.4,18.8-42.6,40.5-50.1C173.5,28,175.2,53.6,188.7,73.8z"/>
			<path id="Path_00000021093923115024961360000003422391887602207107_" style="fill:#BABABA;" d="M198.1,111.6
				c23.1,0,41.8,18.7,41.8,41.8s-18.7,41.8-41.8,41.8H55.5l0,0c-34-0.1-61.4-27.7-61.3-61.5c0.1-34,27.7-61.4,61.6-61.3H63
				c19.4-21.5,49.7-29.6,77.4-20.6c26.9,8.7,46.4,32.1,50.2,59.9H198.1z M55.5,185.3L55.5,185.3h142.6c17.7,0,31.9-14.3,31.9-31.9
				s-14.3-31.9-31.9-31.9h-16.5l-0.3-4.6c-2-25.8-19.3-47.9-43.9-55.8S85.8,60.7,69,80.4l-1.5,1.7h-2.2h-9.5
				c-28.5-0.1-51.6,23-51.7,51.4C4,162.1,27,185.3,55.5,185.3z"/>
			<polygon id="Path_00000168091865873187271160000017097976889956833672_" style="fill:#288ADB;" points="71.4,258.7 98.3,212.6 
				89.8,207.6 62.9,253.7 			"/>
			<polygon id="Path_00000152265403839541024100000015577583495470203797_" style="fill:#288ADB;" points="142.7,258.7 169.7,212.6 
				161.2,207.6 134.3,253.7 			"/>
			<polygon id="Path_00000064317852275998140020000005124406821569339071_" style="fill:#288ADB;" points="93.5,282 134,212.6 
				125.5,207.6 85,277 			"/>
		</g>
	</g>
</g>
</svg>
