<?xml version="1.0" encoding="utf-8"?>
<!-- Generator: Adobe Illustrator 26.5.3, SVG Export Plug-In . SVG Version: 6.00 Build 0)  -->
<svg version="1.1" id="Layer_1" xmlns="http://www.w3.org/2000/svg" xmlns:xlink="http://www.w3.org/1999/xlink" x="0px" y="0px"
	 width="288px" height="288px" viewBox="0 0 288 288" style="enable-background:new 0 0 288 288;" xml:space="preserve">
<g>
	<rect style="fill:none;" width="288" height="288"/>
	
		<g id="WX-Icons_x2F_Brand_x2F_Color_x2F_41--Partly-Cloudy-with-Thundershowers-Night-_x40_DefaultSymbols.ICONS_x5F_Forecast_x5F_Color">
		<g id="Partly-cloudy-w--Thunderstorms" transform="translate(7.000000, 10.000000)">
			<polygon id="Path" style="fill:#FF8700;" points="59.7,211.7 84.7,168.8 76.1,163.7 42.2,221.7 75.5,221.7 47.7,269.3 
				56.4,274.3 93,211.7 			"/>
			<path id="Path_00000021829933194122943690000008347727037477291675_" style="fill:#686763;" d="M185.8,229.4
				c-35.6,3.4-70.9-10-95.2-36.3l-7.4,6.9c26.4,28.7,64.7,43.3,103.6,39.6s73.6-25.3,94.2-58.4l-5.3-7.6
				c-32.3,7.2-66.3-0.4-92.5-20.7l-6.1,8c25.4,19.5,57.3,28.2,88.8,24.6C246.5,210.3,217.6,226.3,185.8,229.4z"/>
			<path id="Path_00000135670959425871093520000002885096651068446857_" style="fill:#686763;" d="M139.5,112.3l9.3-3.9
				C134,73.1,138.6,32.7,160.9,1.6l-4.8-7.9C100.9,2,57.9,46.2,51.3,101.8l10,1.2c5.6-47.1,39.7-85.5,84.9-97
				C127.5,38.2,124.9,77.5,139.5,112.3z"/>
			<path id="Path_00000035521415194089552280000013552393817173537442_" style="fill:#BABABA;" d="M71.3,88.8
				c-20.9,6.8-35.9,24.7-39.2,46.1h-4.5c-12.2-0.5-23.6,5.7-29.9,16.3s-6.2,23.6,0,34.2c6.2,10.4,17.7,16.7,29.9,16.3h16.8v-10h-17
				h-0.2c-8.5,0.4-16.6-4-21-11.4s-4.4-16.5,0-23.8s12.4-11.7,21-11.4h0.2h13.8l0.3-4.7c1.4-19.3,14.4-35.9,32.9-41.9
				c18.4-6,38.7-0.2,51.2,14.6l1.5,1.7h9.6c20.7,0.7,36.9,17.7,36.9,38.4s-16.4,37.6-36.9,38.4H79.5v10h57.3h0.2
				c26.1-0.9,46.8-22.3,46.8-48.4s-20.7-47.5-46.8-48.4h-0.2h-5.1C116.4,88,92.9,81.8,71.3,88.8z M136.8,114.8h-0.2
				C136.7,114.8,136.7,114.8,136.8,114.8L136.8,114.8z"/>
		</g>
	</g>
</g>
</svg>
