<?xml version="1.0" encoding="utf-8"?>
<!-- Generator: Adobe Illustrator 26.5.3, SVG Export Plug-In . SVG Version: 6.00 Build 0)  -->
<svg version="1.1" id="Layer_1" xmlns="http://www.w3.org/2000/svg" xmlns:xlink="http://www.w3.org/1999/xlink" x="0px" y="0px"
	 width="288px" height="288px" viewBox="0 0 288 288" style="enable-background:new 0 0 288 288;" xml:space="preserve">
<g>
	<rect style="fill:none;" width="288" height="288"/>
	
		<g id="WX-Icons_x2F_Brand_x2F_Color_x2F_42--Mostly-Cloudy-with-Thundershowers-Night-_x40_DefaultSymbols.ICONS_x5F_Forecast_x5F_Color">
		<g id="Mostly-cloudy-w--Thunderstorms" transform="translate(15.000000, 6.000000)">
			<path id="Path" style="fill:#686763;" d="M188.1,73.1c13.4,20,36.1,31.2,59.6,30.1c-7.2,7.9-16.6,13.9-27,17.1l2.8,9.3
				c16.3-5,30.2-15.7,39.2-30.2l-5.2-7.3c-23.5,5.3-47.8-4.4-61.3-24.5S183,21.2,197,1.6L192.3-6c-31.1,4.7-55.2,29.5-59.1,60.8
				l9.6,1.2c2.8-23.2,18.7-42.3,40.1-49.6C173.1,27.7,174.7,53.1,188.1,73.1z"/>
			<path id="Path_00000104702099247954666390000015795740797082798234_" style="fill:#BABABA;" d="M140.5,51.3
				C113,42.3,83,50.5,63.7,71.7h-7.2c-33.7-0.1-61,27.1-61.1,60.8c-0.1,33.7,27.1,61,60.8,61.1h39v-9.7H56.3
				c-28.2-0.1-51-23-51-51.3c0.1-28.2,23-51.1,51.2-51h9.4h2.2l1.5-1.7c16.7-19.6,43.4-27.1,67.8-19.2S179.1,90.3,181,116l0.3,4.5
				h16.3c17.5,0,31.6,14.2,31.6,31.6s-14.1,31.6-31.5,31.6h-62v9.7h62c22.9,0,41.4-18.6,41.4-41.4s-18.6-41.4-41.4-41.4h-7.4
				C186.5,83.1,167.2,59.9,140.5,51.3z"/>
			<polygon id="Path_00000116945138387256184360000006782243359878470067_" style="fill:#FF8700;" points="142.4,152.6 133.9,147.7 
				91.9,219.7 134.1,219.7 100.7,277.1 109,282 151.1,210 108.9,210 			"/>
		</g>
	</g>
</g>
</svg>
