<?xml version="1.0" encoding="utf-8"?>
<!-- Generator: Adobe Illustrator 26.5.3, SVG Export Plug-In . SVG Version: 6.00 Build 0)  -->
<svg version="1.1" id="Layer_1" xmlns="http://www.w3.org/2000/svg" xmlns:xlink="http://www.w3.org/1999/xlink" x="0px" y="0px"
	 width="288px" height="288px" viewBox="0 0 288 288" style="enable-background:new 0 0 288 288;" xml:space="preserve">
<g>
	<rect style="fill:none;" width="288" height="288"/>
	
		<g id="WX-Icons_x2F_Brand_x2F_Color_x2F_43--Mostly-Cloudy-with-Flurries-Night-_x40_DefaultSymbols.ICONS_x5F_Forecast_x5F_Color">
		<g id="Mostly-cloudy-w--Flurries_1" transform="translate(17.000000, 5.000000)">
			<path id="Path" style="fill:#686763;" d="M185.3,72.8c13.2,19.7,35.5,30.7,58.6,29.7c-7.1,7.8-16.4,13.8-26.6,16.9l2.8,9.1
				c16.1-4.9,29.8-15.5,38.6-29.8l-5.1-7.2c-23.2,5.2-47.2-4.4-60.3-24.1c-13.3-19.7-12.8-45.5,0.8-64.8L189.5-5
				c-30.6,4.6-54.4,29.1-58.1,59.8l9.5,1.2c2.8-22.8,18.4-41.7,39.6-48.9C170.5,28,172.1,53,185.3,72.8z"/>
			<path id="Path_00000010307059455886058390000001853778159876151441_" style="fill:#BABABA;" d="M194.5,109.8
				c22.6,0,40.9,18.3,40.9,40.9s-18.3,40.8-40.9,40.8H55.2l0,0c-33.1-0.1-59.9-27-59.9-60.1c0.1-33.2,27.1-60,60.2-59.9h7.1
				c19-21,48.6-28.9,75.6-20.1c26.3,8.5,45.3,31.4,49.1,58.5H194.5z M55.2,181.8L55.2,181.8h139.3c17.3,0,31.2-14,31.2-31.2
				s-14-31.2-31.2-31.2h-16.1l-0.3-4.4c-1.9-25.2-18.9-46.8-43-54.6S84.8,60,68.3,79.2L66.9,81h-2.2h-9.2C27.7,80.9,5,103.5,5,131.3
				C4.9,159.1,27.4,181.7,55.2,181.8z"/>
			<polygon id="Path_00000082345277880255480000000005255443861980369832_" style="fill:#288ADB;" points="113.1,206.2 113.1,283 
				122.6,283 122.6,206.2 			"/>
			<polygon id="Path_00000090977566186481582820000010624254445590665653_" style="fill:#288ADB;" points="82.2,229.5 148.7,267.9 
				153.5,259.6 87,221.2 			"/>
			<polygon id="Path_00000160181706806840767780000008447209294420058015_" style="fill:#288ADB;" points="87,267.9 153.5,229.5 
				148.7,221.2 82.2,259.6 			"/>
		</g>
	</g>
</g>
</svg>
