<?xml version="1.0" encoding="utf-8"?>
<!-- Generator: Adobe Illustrator 26.5.3, SVG Export Plug-In . SVG Version: 6.00 Build 0)  -->
<svg version="1.1" id="Layer_1" xmlns="http://www.w3.org/2000/svg" xmlns:xlink="http://www.w3.org/1999/xlink" x="0px" y="0px"
	 width="288px" height="288px" viewBox="0 0 288 288" style="enable-background:new 0 0 288 288;" xml:space="preserve">
<g>
	<rect style="fill:none;" width="288" height="288"/>
	<g id="WX-Icons_x2F_Brand_x2F_Color_x2F_44--Mostly-Cloudy-with-Snow-Night-_x40_DefaultSymbols.ICONS_x5F_Forecast_x5F_Color">
		<g id="Mostly-cloudy-w--Snow_1" transform="translate(17.000000, 5.000000)">
			<path id="Path" style="fill:#686763;" d="M185.2,72.8c13.2,19.7,35.5,30.7,58.6,29.7c-7.1,7.8-16.4,13.7-26.6,16.9l2.8,9.1
				c16.1-4.9,29.8-15.5,38.7-29.7l-5.1-7.2c-23.2,5.2-47.2-4.4-60.4-24.1c-13.2-19.7-12.9-45.6,0.9-65L189.5-5
				c-30.6,4.6-54.4,29.1-58.1,59.8l9.5,1.2c2.8-22.8,18.4-41.7,39.6-48.9C170.4,28,172,53,185.2,72.8z"/>
			<path id="Path_00000143596463788236499820000002949678594607600036_" style="fill:#BABABA;" d="M194.4,109.8
				c22.5,0,40.8,18.3,40.8,40.8s-18.3,40.8-40.8,40.8H55.2l0,0c-33.1,0-59.9-26.9-59.8-60.1c0-33.1,26.9-59.9,60.1-59.8h7.1
				c19-21,48.6-28.9,75.6-20.1c26.3,8.5,45.3,31.3,49.1,58.5h7.2V109.8z M55.2,181.8L55.2,181.8h139.3c17.3,0,31.2-14,31.2-31.2
				s-14-31.2-31.2-31.2h-16.1l-0.3-4.4c-1.9-25.2-18.9-46.8-43-54.5s-50.4-0.3-66.8,19l-1.4,1.7h-2.2h-9.2
				C27.5,81,4.9,103.5,4.8,131.3C4.8,159.2,27.3,181.8,55.2,181.8z"/>
			<polygon id="Path_00000078035775688742598800000000630540704413914524_" style="fill:#288ADB;" points="197,215.8 197,273.4 
				206.7,273.4 206.7,215.8 			"/>
			<polygon id="Path_00000119119855817579609720000010061478361509217417_" style="fill:#288ADB;" points="174.5,234.4 224.4,263.1 
				229.2,254.8 179.4,226.1 			"/>
			<polygon id="Path_00000170989642541441317620000003061643658048855691_" style="fill:#288ADB;" points="179.4,263.1 229.2,234.4 
				224.4,226.1 174.5,254.8 			"/>
			<polygon id="Path_00000057143081049271243010000017775026906446015644_" style="fill:#288ADB;" points="28.8,215.8 28.8,273.4 
				38.5,273.4 38.5,215.8 			"/>
			<polygon id="Path_00000142863081151482895080000000046466480639521665_" style="fill:#288ADB;" points="6.4,234.4 56.3,263.1 
				61,254.8 11.3,226.1 			"/>
			<polygon id="Path_00000069356699753086785820000004682776186518138240_" style="fill:#288ADB;" points="11.3,263.1 61,234.4 
				56.3,226.1 6.4,254.8 			"/>
			<polygon id="Path_00000025413638511354491010000012064506981137622433_" style="fill:#288ADB;" points="113,206.2 113,283 
				122.6,283 122.6,206.2 			"/>
			<polygon id="Path_00000112625691760778134600000005785807029722734732_" style="fill:#288ADB;" points="82.2,229.5 148.6,267.9 
				153.5,259.6 87,221.2 			"/>
			<polygon id="Path_00000086675812971267332710000002088823891264026766_" style="fill:#288ADB;" points="87,267.9 153.5,229.5 
				148.6,221.2 82.2,259.6 			"/>
		</g>
	</g>
</g>
</svg>
