<svg xmlns="http://www.w3.org/2000/svg" width="155.543" height="26" viewBox="0 0 155.543 26">
  <g id="Group_8089" data-name="Group 8089" transform="translate(15914 -91.814)">
    <path id="Path_2355" data-name="Path 2355" d="M-17.528,295.463l-10.69-16.549v10.969a1.453,1.453,0,0,0,.334.854l3.34,4.377v.349h-8.381v-.348l3.236-4.337a1.527,1.527,0,0,0,.372-.907V277.809a1.467,1.467,0,0,0-.25-.9l-3.231-3.973v-.353h7.869L-14.4,288.935V278.16a1.4,1.4,0,0,0-.333-.885l-3.309-4.346v-.349H-9.66v.348l-3.269,4.337a1.611,1.611,0,0,0-.371.911v17.287Z" transform="translate(-15881.074 -179.266)"/>
    <path id="Path_2356" data-name="Path 2356" d="M21.483,295.462v-.369l2.208-2.075a.822.822,0,0,0,.22-.6V275.637a.833.833,0,0,0-.228-.62l-2.2-2.069v-.369H39.031v8.156h-.394l-4.183-6.682a.793.793,0,0,0-.692-.411H30.448a.73.73,0,0,0-.275.035.7.7,0,0,0-.056.367v9.424h1.961a.947.947,0,0,0,.662-.365l2.946-3.4h.374v8.572h-.374l-2.939-3.4a.941.941,0,0,0-.705-.34H30.118v9.432a.748.748,0,0,0,.055.393.769.769,0,0,0,.275.034h3.674c.056,0,.087.006.117.006a.79.79,0,0,0,.663-.357l4.017-6.866h.4v8.284Z" transform="translate(-15912.293 -179.266)"/>
    <path id="Path_2357" data-name="Path 2357" d="M82.176,283.187l-3.9,12.276H73.494l-5.957-19.09a5.313,5.313,0,0,0-.613-1.255l-1.377-2.2v-.338h9.881v.346l-1.575,2.2a.7.7,0,0,0-.04.624l4.7,15.215L81.6,281.29l-1.515-4.919a5.824,5.824,0,0,0-.523-1.17l-1.272-2.288v-.332h9.718v.346l-1.574,2.2a.668.668,0,0,0-.071.628l4.6,15.161,3.979-12.847a.985.985,0,0,0-.183-.95l-2.92-4.189v-.344h8v.348l-3.079,4.114a4.077,4.077,0,0,0-.736,1.313l-5.283,17.106-4.785,0Z" transform="translate(-15937.575 -179.266)"/>
    <path id="Path_2358" data-name="Path 2358" d="M152.487,295.354a23.471,23.471,0,0,1-6.454-.9l-.155-.044V286.4h.4l4.278,7.39a.815.815,0,0,0,.564.474,10.856,10.856,0,0,0,1.135.06h.157c.1,0,.175.006.256.006a4.685,4.685,0,0,0,2.783-.923,3.092,3.092,0,0,0,1.1-2.532,2.923,2.923,0,0,0-.923-2.268,14.232,14.232,0,0,0-3.357-2.02l-1-.486a21.923,21.923,0,0,1-2.192-1.175,13.706,13.706,0,0,1-1.869-1.431,5.881,5.881,0,0,1-1.488-2.086,6.778,6.778,0,0,1-.511-2.689,6.14,6.14,0,0,1,2.35-5.02,9.609,9.609,0,0,1,6.168-1.866,26.235,26.235,0,0,1,6.182.742l.163.04v7.664h-.4l-4.374-7a.741.741,0,0,0-.5-.351,5.2,5.2,0,0,0-.794-.061h-.09c-.077,0-.14-.005-.2-.005a3.788,3.788,0,0,0-2.427.882,3.061,3.061,0,0,0-.962,2.412,2.727,2.727,0,0,0,.874,2.123,13.364,13.364,0,0,0,3.056,1.88l1.189.578c.826.4,1.495.742,1.989,1.01a16.119,16.119,0,0,1,1.669,1.069,6.941,6.941,0,0,1,1.446,1.331,6.222,6.222,0,0,1,.881,1.627,5.81,5.81,0,0,1,.365,2.088,6.721,6.721,0,0,1-2.54,5.436,10.168,10.168,0,0,1-6.617,2.058Z" transform="translate(-15983.279 -178.836)"/>
    <path id="Path_2359" data-name="Path 2359" d="M186.659,295.031v-.354l4.041-4.851c1.1-1.332,2.085-2.628,2.926-3.849A22.42,22.42,0,0,0,196,281.719a10.331,10.331,0,0,0,.686-3.8,7.281,7.281,0,0,0-.8-3.8,2.377,2.377,0,0,0-2.076-1.226h-.1a2.956,2.956,0,0,0-.724.09.457.457,0,0,0-.328.3l-2.777,6.568h-.346l-2.626-6.1.182-.089a18.172,18.172,0,0,1,7.948-1.842,8.859,8.859,0,0,1,5.825,1.712,5.715,5.715,0,0,1,2.058,4.579,6.685,6.685,0,0,1-.561,2.681A10.54,10.54,0,0,1,201,283.133a15.658,15.658,0,0,1-2.287,2.272c-.968.808-1.886,1.516-2.727,2.1s-1.954,1.322-3.313,2.193l-.811.534h7.564c.062,0,.11.005.158.005a2.189,2.189,0,0,0,.6-.085,2.249,2.249,0,0,0,.519-.427l2.173-2.372h.406l-1.185,7.677Z" transform="translate(-16007.065 -178.836)"/>
    <path id="Path_2360" data-name="Path 2360" d="M234.276,295.465v-.373l2.371-2.106a.768.768,0,0,0,.312-.609v-2.628H228.4v-.268l.026-.08,9.26-16.819h4.939v16.1h.458l.076,0a.891.891,0,0,0,.315-.057.93.93,0,0,0,.254-.286l3.353-5.76h.419l-.645,7.166h-4.232v2.629a.826.826,0,0,0,.279.575l2.34,2.142v.37Zm2.683-6.782V276.267l-6.931,12.416Z" transform="translate(-16031.014 -179.268)"/>
    <rect id="Rectangle_4288" data-name="Rectangle 4288" width="1.066" height="26" transform="translate(-15779.968 91.814)"/>
    <path id="Path_2361" data-name="Path 2361" d="M295.159,295.465l.137-.3c1.487-3.272,3.225-6.642,5.167-10.016a91.325,91.325,0,0,1,4.869-7.728h-9.778l-.089,0a.985.985,0,0,0-.338.06,1.626,1.626,0,0,0-.333.311l-1.824,2.155h-.4l.781-7.36h16.025v.34l-2.464,3.822a7.187,7.187,0,0,0-.678,1.484,132.019,132.019,0,0,0-3.826,17.06l-.03.177Z" transform="translate(-16067.833 -179.268)"/>
  </g>
</svg>
