<?xml version="1.0" encoding="utf-8"?>
<!-- Generator: Adobe Illustrator 26.5.3, SVG Export Plug-In . SVG Version: 6.00 Build 0)  -->
<svg version="1.1" id="Layer_1" xmlns="http://www.w3.org/2000/svg" xmlns:xlink="http://www.w3.org/1999/xlink" x="0px" y="0px"
	 viewBox="0 0 26 26" style="enable-background:new 0 0 26 26;" xml:space="preserve">
<style type="text/css">
	.st0{fill:none;}
</style>
<g>
	<rect class="st0" width="26" height="26"/>
	<g>
		<path d="M23.2,3.9h-1.8V2.3c0-0.2-0.2-0.3-0.3-0.3h-0.7C20.2,2,20,2.2,20,2.3v1.6H6V2.3C6,2.2,5.8,2,5.7,2H4.9
			C4.7,2,4.6,2.2,4.6,2.3v1.6H2.8C1.8,3.9,1,4.7,1,5.7v16.5c0,1,0.8,1.8,1.8,1.8h20.4c1,0,1.8-0.8,1.8-1.8V5.7
			C25,4.7,24.2,4,23.2,3.9z M23.6,21.7c0,0.5-0.4,0.9-0.9,0.9H3.3c-0.5,0-0.9-0.4-0.9-0.9V9.3C2.4,9.1,2.6,9,2.8,9h20.4
			c0.2,0,0.4,0.2,0.4,0.4V21.7z"/>
	</g>
</g>
</svg>
