<?xml version="1.0" encoding="utf-8"?>
<!-- Generator: Adobe Illustrator 26.4.1, SVG Export Plug-In . SVG Version: 6.00 Build 0)  -->
<svg version="1.1" id="Layer_1" xmlns="http://www.w3.org/2000/svg" xmlns:xlink="http://www.w3.org/1999/xlink" x="0px" y="0px"
	 viewBox="0 0 26 26" style="enable-background:new 0 0 26 26;" xml:space="preserve">
<style type="text/css">
	.st0{fill:none;}
</style>
<g>
	<rect class="st0" width="26" height="26"/>
	<path d="M14.4,21.5v1.6c0,0.8-0.6,1.4-1.4,1.4s-1.4-0.6-1.4-1.4v-1.6c0,0,0,0,0,0c0-0.8,0.6-1.4,1.4-1.4v0
		C13.8,20.1,14.4,20.7,14.4,21.5z M7.9,6.1C7.9,6.1,7.9,6.1,7.9,6.1L7.9,6.1c-0.8,0-1.4,0.7-1.4,1.4c0,0,0,0,0,0v5.1
		c0,0.8,0.6,1.4,1.4,1.4c0.8,0,1.4-0.6,1.4-1.4V7.5C9.3,6.7,8.7,6.1,7.9,6.1z M2.9,10.8C2.9,10.8,2.9,10.8,2.9,10.8
		c-0.8,0-1.4,0.6-1.4,1.4c0,0,0,0,0,0v1.6c0,0.8,0.6,1.4,1.4,1.4s1.4-0.6,1.4-1.4v-1.6C4.4,11.4,3.7,10.8,2.9,10.8z M7.9,15.5
		C7.9,15.5,7.9,15.5,7.9,15.5L7.9,15.5c-0.8,0-1.4,0.6-1.4,1.4c0,0,0,0,0,0v1.6c0,0.8,0.6,1.4,1.4,1.4s1.4-0.6,1.4-1.4v-1.6
		C9.3,16.1,8.7,15.5,7.9,15.5z M13,7.4C13,7.4,13,7.4,13,7.4L13,7.4c-0.8,0-1.4,0.6-1.4,1.4v8.4c0,0.8,0.6,1.4,1.4,1.4
		s1.4-0.6,1.4-1.4V8.8C14.4,8,13.8,7.4,13,7.4z M18.1,11.9C18.1,11.9,18.1,11.9,18.1,11.9c-0.8,0-1.4,0.6-1.4,1.4v5.1
		c0,0.8,0.6,1.4,1.4,1.4s1.4-0.6,1.4-1.4v-5.1C19.5,12.6,18.9,11.9,18.1,11.9z M13,1.5C13,1.5,13,1.5,13,1.5c-0.8,0-1.4,0.6-1.4,1.4
		c0,0,0,0,0,0v1.6c0,0.8,0.6,1.4,1.4,1.4s1.4-0.6,1.4-1.4V2.9C14.4,2.1,13.8,1.5,13,1.5z M23.1,10.8C23.1,10.8,23.1,10.8,23.1,10.8
		c-0.8,0-1.4,0.6-1.4,1.4c0,0,0,0,0,0v1.6c0,0.8,0.6,1.4,1.4,1.4s1.4-0.6,1.4-1.4v-1.6C24.5,11.4,23.9,10.8,23.1,10.8z M18.1,10.5
		c0.8,0,1.4-0.6,1.4-1.4V7.5c0-0.8-0.6-1.4-1.4-1.4c0,0,0,0,0,0c-0.8,0-1.4,0.6-1.4,1.4c0,0,0,0,0,0v1.6
		C16.7,9.9,17.3,10.5,18.1,10.5z"/>
</g>
</svg>
