<svg id="Group_9055" data-name="Group 9055" xmlns="http://www.w3.org/2000/svg" xmlns:xlink="http://www.w3.org/1999/xlink" width="177.187" height="266" viewBox="0 0 177.187 266">
  <defs>
    <clipPath id="clip-path">
      <rect id="Rectangle_5338" data-name="Rectangle 5338" width="177.187" height="266" fill="none"/>
    </clipPath>
  </defs>
  <g id="Group_9055-2" data-name="Group 9055" clip-path="url(#clip-path)">
    <path id="Path_2525" data-name="Path 2525" d="M24.351,170.729q.313,1.211.627,2.422c.243.936.431,2.255,1.229,2.884a.926.926,0,0,0-.008,1.047.7.7,0,0,0,.086.619A267.039,267.039,0,0,0,46.252,205.62,265.549,265.549,0,0,0,69.7,230.791q5.474,5.165,11.24,10.009Q64.173,235.385,47.8,228.857q-2.721-1.087-5.438-2.205-.647-2.368-1.3-4.737a.831.831,0,0,0-.757-.626l-13.662-.1a.831.831,0,0,0-.843.777q-1.06,8.917-2.124,17.831c-.35,2.946-.712,5.89-1.049,8.836a20.4,20.4,0,0,0,.195,7.893c1.367,4.831,5.956,7.555,10.608,8.558a43.927,43.927,0,0,0,8.263.918c2.213.045,4.745-.7,5.337-3.126.715-2.939-2.743-4.006-4.781-4.959q-2.113-.992-4.227-1.983l3.769-11.52q10.912,5.08,21.823,10.165,7.431,3.461,14.866,6.926c4.374,2.026,8.973,4.014,13.877,4.081,4.277.058,8.586-1.36,11.368-4.732a14.708,14.708,0,0,0,2.928-6.19.789.789,0,0,0,.5.217q7.378.608,14.753,1.218c2.459.2,4.919.412,7.378.608a6.419,6.419,0,0,0,4.463-.864,2.607,2.607,0,0,0,.334-3.787c-1.112-1.279-2.934-1.582-4.484-1.981a44.027,44.027,0,0,1-21.588-13.036,279.6,279.6,0,0,0,19.83-24.889,277.553,277.553,0,0,0,17.253-27.734q3.883-7.147,7.337-14.513c2.121-4.518,4.136-9.81,1.795-14.662-2.072-4.291-6.875-5.394-11.251-5.248-2.558.084-5.1.489-7.632.822l-8.957,1.177L90.233,156.74l-3.059.4Q82.084,146.983,77,136.828q-.491-1.2-.979-2.4-.338-.953-.673-1.908a.006.006,0,0,1,.005,0c-.011-.021-.018-.044-.029-.068-.3-.838-.592-1.68-.887-2.519,5.906,4.41,12.738,7.866,20.185,8.226,7.8.376,15.732-2.746,19.972-9.534,4.366-6.992,4.508-15.868,3.826-23.822a83.953,83.953,0,0,0-6.459-25.816q-1.52-3.545-3.367-6.94c-.457-.837-.918-1.752-1.466-2.6-.121.055-.242.11-.363.164l1.094-9.776,7.346,1.229a1.58,1.58,0,0,0,.174.869.658.658,0,0,0,.541.82l25.963,5.3-.037.958a.458.458,0,0,0,0,.068.741.741,0,0,0,.543.789q6.5,2.006,12.989,4.017a.82.82,0,0,0,1.057-.741q.049-1.987.1-3.97l0-.016a87.162,87.162,0,0,0,2.824-32.344,85.856,85.856,0,0,0-1.438-9.2.737.737,0,0,0-.321-.49q.078-2.947.151-5.9a.821.821,0,0,0-.994-.822l-12,2.369a.816.816,0,0,0-.626.757c.02.782.039,1.564.058,2.344q-13.521,2.58-27.043,5.155a.812.812,0,0,0-.626.757q.037.669.073,1.338-13.4,2.651-26.806,5.3a.826.826,0,0,0-.626.755c-.042.358-.085.715-.126,1.073L67.65,44.1c.01-.368.021-.734.031-1.1a.8.8,0,0,0-.947-.806.4.4,0,0,0-.076-.01L64.242,42a.828.828,0,0,0-.546-.1c-.146.023-.292.042-.438.065a.668.668,0,0,0-.6.563.74.74,0,0,0-.288.588q-.129,4.45-.259,8.9a.87.87,0,0,0,.514.8.708.708,0,0,0,.135.037.563.563,0,0,0,.13.008q1.756-.08,3.508-.157a.9.9,0,0,0,.2-.032.753.753,0,0,0,.841-.747q.017-.612.032-1.226a.792.792,0,0,0,.175.054l20,4.129q-1.092,2.442-2.182,4.886a.671.671,0,0,0,.461.96l2.493,3.875L87.13,65.921a.826.826,0,0,0-.047,1.146q3.478,3.575,6.949,7.153c.011.01.021.02.029.028-.289.237-.572.48-.848.733a.742.742,0,0,0-.143.973L92.985,76a107.282,107.282,0,0,1,6.1,15.852,108.04,108.04,0,0,1,2.552,10.548c.642,3.4,1.428,7.355-.626,10.445-1.858,2.8-5.353,2.858-8.095,1.37-2.955-1.6-4.651-4.6-6.2-7.458a47.538,47.538,0,0,0-5.073-7.868,38.411,38.411,0,0,0-25.589-13.6.7.7,0,0,0-.614.219q-.255-.9-.509-1.808a.9.9,0,0,0-.122-.258A49.168,49.168,0,0,0,65.858,72.363c2.2-3.215,3.79-7.067,3.255-11.026A9.532,9.532,0,0,0,63.264,53.5c-.209-.078-.421-.146-.634-.2l-.128-.036a18.4,18.4,0,0,0-3.064-.477,2.557,2.557,0,0,0-2.156-3.372,2.526,2.526,0,0,0-2.744,2.061,5.607,5.607,0,0,1-2.265-3.754,5.468,5.468,0,0,1,.525-2.771.013.013,0,0,1,0-.008,5.406,5.406,0,0,0,4.324-1.807,5.732,5.732,0,0,0,.039-7.013,9.292,9.292,0,0,0,4.33-1.876,5.917,5.917,0,0,0,2.056-5.8A8.175,8.175,0,0,0,59.5,23.12a16.607,16.607,0,0,0-7.923-1.7A53.94,53.94,0,0,0,20.2,30.874a27.064,27.064,0,0,0-9.785,11.378,28.164,28.164,0,0,0-1.2,16.291c1.13,5.715,3.56,11.083,6.185,16.251,2.26,4.45,5.314,9.537,10.876,9.893a6.984,6.984,0,0,0,1.984-.151h0c3.819-.866,6.13-4.951,5.825-8.913a11.3,11.3,0,0,0-2.831-6.54,7.209,7.209,0,0,1-5.761-.829c-3.255-2.09-5.327-6.882-3.42-10.506a5.81,5.81,0,0,1,5.611-3.09A6.517,6.517,0,0,1,30.7,55.91a6.1,6.1,0,0,0-1.1-2.485,6.094,6.094,0,0,0,5.023-5.507c3.719-.324,7.574-.752,10.862-2.635a12.945,12.945,0,0,0,3.069-2.422c.011.016.024.032.036.05A5.267,5.267,0,0,0,50.992,44.6a7.228,7.228,0,0,0-.349,3.1.941.941,0,0,0-.052.185,4.974,4.974,0,0,0,1.976,4.57,7.063,7.063,0,0,0,2.223,1.175c.014-.04.026-.082.039-.123A1.123,1.123,0,0,0,56.222,52.5a.961.961,0,1,1,1.526.13c-.61.678.164,1.686.835,1.388-.014.1-.031.2-.048.3a12.192,12.192,0,0,1,5.376,1.282,7.7,7.7,0,0,1,3.019,3.748c1.448,3.607.353,7.532-1.543,10.749a38.67,38.67,0,0,1-8.093,9.229A122.544,122.544,0,0,1,46.208,87.6c-.85.585-.1,2.025.761,1.431.762-.525,1.53-1.052,2.3-1.585q.72,6.831,1.436,13.657s0,.008,0,.013q-.124,2.211-.248,4.423a.659.659,0,0,1,.023.639.574.574,0,0,1-.057.11v.014a.749.749,0,0,1-.593.728,13.468,13.468,0,0,1-1.938-2.694,18.543,18.543,0,0,1-1.059-3.911A17.873,17.873,0,0,1,48.1,91.216c.224-.529-.266-1-.739-1.057a70.954,70.954,0,0,1-18.537-5.1A.733.733,0,0,0,28.38,85a.661.661,0,0,0-.373.243.637.637,0,0,0-.736.044L22.7,88.452a.822.822,0,0,0-.055,1.4c.238.138.475.282.712.423C10.832,103.437-.23,119.82,0,138.709c.1,7.882,2.035,18.182,9.938,21.946a17.613,17.613,0,0,0,11.72.8c.185-.045.368-.1.553-.146a.717.717,0,0,0-.128.661q.606,2.345,1.213,4.685M65.837,51.1q-1.038.046-2.078.094.112-3.8.222-7.594l2.057.156q-.1,3.674-.2,7.344m-32.521,188.4a.9.9,0,0,0,.378,1.138c.068.181.141.363.216.545a.815.815,0,0,0,1.266.216c.015-.016.028-.032.042-.047l5.1,2.373q-1.668,5.088-3.33,10.172a.893.893,0,0,0-.717.96c.008.089.018.18.028.271l-3.26-1.527c-.944-.444-1.425,1.107-.493,1.543l7.2,3.375,3.455,1.618c.817.384,2.241.858,2.31,1.939a2.3,2.3,0,0,1-1.634,2.051,9.041,9.041,0,0,1-3.68.168,39.658,39.658,0,0,1-7.3-1c-4.332-1.151-8.137-3.944-8.8-8.623a26.59,26.59,0,0,1,.261-6.85q.474-3.978.948-7.958,1.014-8.524,2.03-17.048l12.326.1q.4,1.479.812,2.96-1.491-.62-2.972-1.247a.687.687,0,0,0-.97.488.852.852,0,0,0-.2.174,15.526,15.526,0,0,0-3.01,14.214M68.138,49.2a.826.826,0,0,0-.629.11q.048-1.775.1-3.557L90.03,41.72l-.467,11.9L68.138,49.2M87.225,59.757l1.495-3.349a.73.73,0,0,0,.669.447.875.875,0,0,0,.3-.058q2.689.447,5.376.9-2.748,2.85-5.5,5.7-1.17-1.819-2.339-3.636m1.581,6.757L97,58.017l.125.021c.018-.039.037-.078.057-.117h0a.216.216,0,0,0,.016-.026q.1-.2.209-.394,1.031-1.153,2.067-2.309a10.986,10.986,0,0,1,.154,3.124c-.039.039-.076.079-.113.122.032,0,.066.01.1.014a10.457,10.457,0,0,1-2.422,5.705.874.874,0,0,0-.092.131c-.112.107-.225.211-.345.311a.719.719,0,0,0-.274.589.779.779,0,0,0,.282.989q1.841,1.267,3.68,2.536c.862.592,1.731-.777.874-1.368l-2.949-2.028a10.159,10.159,0,0,0,2.926-6.582q2.485.413,4.969.83-.567,5.068-1.135,10.139v0a20.6,20.6,0,0,0-9.777,3.57.83.83,0,0,0-.121-.159ZM50.7,86.447q1.391-.977,2.767-1.989.885,3.13,1.772,6.264a2.061,2.061,0,0,0-2.052-.488A2.67,2.67,0,0,0,51.4,92.346q-.292-2.777-.584-5.554a.757.757,0,0,0-.119-.345m.167,22.57a.8.8,0,0,0,.559-.041,3.066,3.066,0,0,1,1.005.162c.8.279,1.619,1.333,1.164,2.169a3.47,3.47,0,0,0-.318.412c-.489.752.59,1.717,1.234,1.031a2.72,2.72,0,0,0,.268-.335,1.783,1.783,0,1,1,2.634,2.38.815.815,0,0,0,.932,1.312,2.047,2.047,0,0,1,2.189,3.458c-.686.478-.4,1.788.564,1.5a1.533,1.533,0,0,1,1.822,1.211,5.363,5.363,0,0,1-.167,2.8,14.065,14.065,0,0,1-2.106,4.557,14.481,14.481,0,0,1-6.4,5.128.819.819,0,0,0-.366-.55q-6.391-3.434-12.778-6.867c-1.192-2.2-2.458-4.622-2.038-7.2.345-2.111,2.518-4.34,4.745-3.168l-.807,1.253a.812.812,0,0,0,1.368.872q1.726-2.687,3.46-5.378a.811.811,0,0,0-1.367-.872l-.877,1.362a6.867,6.867,0,0,1,3.354-4.52,5.822,5.822,0,0,1,1.929-.679m-22.83-22.3a.926.926,0,0,0,.188-.174.773.773,0,0,0,.11.057A72.41,72.41,0,0,0,45.593,91.53a20.778,20.778,0,0,0-4.521,11.485,31.512,31.512,0,0,0-3.094-4,.715.715,0,0,0-.259-.4l-.542-.449-.117-.121-.007.018L34,95.527a.874.874,0,0,0-.266-.152,90.7,90.7,0,0,0-9.151-6.267q1.726-1.194,3.455-2.39m-6.694,72.952a.744.744,0,0,0-.493.327,17.614,17.614,0,0,1-6.405.324,12.7,12.7,0,0,1-9.369-6.5,28.955,28.955,0,0,1-3.291-11.862c-.8-9.064,1.362-18.25,5.261-26.411,4.3-9.011,10.578-16.9,17.431-24.1a.826.826,0,0,0,.211-.374,90.45,90.45,0,0,1,9.008,6.32l.005-.016L36.4,99.618l-.024.053a30.216,30.216,0,0,1,4.5,6.162.714.714,0,0,0,.756.39.745.745,0,0,0,1.036-.735,19.161,19.161,0,0,1,2.487-10.463,20.159,20.159,0,0,0-.088,4.264c0,.532-.028,1.065-.064,1.6l.006.048.04.2c.35,1.05.686,2.1.977,3.173.005-.009.01-.018.016-.027.115.247.239.489.367.729a19.694,19.694,0,0,0,1.686,3.311,8.556,8.556,0,0,0-4.267,6.712.7.7,0,0,0,.02.235,5.147,5.147,0,0,0-6.071,3.388c-1.12,3.066.162,6.167,1.594,8.9a20.987,20.987,0,0,1-22.849,13.65c-1.026-.172-1.081,1.448-.065,1.619,8.01,1.357,16.377-2.367,21.267-8.745A20.522,20.522,0,0,0,40.6,128.92q5.89,3.164,11.78,6.329c-.029.06-.058.12-.089.178a.788.788,0,0,0-.371.754,45.462,45.462,0,0,1-21.866,20.664,43.431,43.431,0,0,1-8.716,2.826m38.27-26.43,11.959,27.944L42.7,170.079q-6.031,1.855-12.06,3.714a.855.855,0,0,0-.342.2c-.208.058-.417.115-.624.172a15.7,15.7,0,0,1-2.121.582c-.468.06-.489-.136-.619-.522-.123-.37-.2-.759-.3-1.133q-.279-1.084-.563-2.172c-.024-.092-.047-.183-.07-.276l-1.128-4.36q-.608-2.339-1.211-4.677a.755.755,0,0,0-.532-.566c.462-.146.916-.31,1.365-.483A47.2,47.2,0,0,0,49.343,143.4a44.731,44.731,0,0,0,4.084-6.634,12.807,12.807,0,0,0,6.181-3.523m65.46,117.125a54.586,54.586,0,0,0,5.259,1.547c.874.222,3.349.9,2.738,2.273-.522,1.177-2.711.979-3.718.9-2.245-.18-4.491-.37-6.736-.556l-15.395-1.27a.8.8,0,0,0-.311.031,19.439,19.439,0,0,0,.131-4.261A40.27,40.27,0,0,0,103.711,237l2.928,1.107a.862.862,0,0,0,.206.052,45.881,45.881,0,0,0,18.224,12.2M117.122,187.2q-6.663,15.119-13.328,30.237-1.95,4.424-3.9,8.852a.67.67,0,0,0-.013.575l-.428.191q-1.52-3.414-3.1-6.8-5.581-11.935-11.966-23.473l32.737-9.586M109.6,77.655a82.015,82.015,0,0,1,6.924,24.451c.924,7.606,1.211,16.051-1.991,23.2a18.267,18.267,0,0,1-7.169,8.25,21.933,21.933,0,0,1-10.449,2.991c-8.79.331-16.8-4.059-23.47-9.43-.195-.553-.391-1.106-.584-1.659a.981.981,0,0,0-.045-.1,63.7,63.7,0,0,1-2.5-17.629c0-1.041-1.619-1.11-1.621-.065a65.6,65.6,0,0,0,2.759,18.788,1.05,1.05,0,0,0-.1.177c.024.066.048.135.071.2a.81.81,0,0,1,.263.271c.045.079.086.159.125.24.084.238.167.477.251.715.063.25.11.5.151.761.238.7.485,1.393.746,2.08a.856.856,0,0,0,.058.446q.727,1.787,1.454,3.57s.006.01.011.013c.071.206.144.41.217.616a.828.828,0,0,0,.251.37c.151.389.285.783.407,1.182.054.13.1.263.152.4.018.034.036.07.052.1.13.314.258.629.386.943a.728.728,0,0,0,.256.337q4.533,9.046,9.066,18.092l-12.162,3.748a.784.784,0,0,0-.05-.149L60.834,132a15.647,15.647,0,0,0,1.924-2.675,12.849,12.849,0,0,0,1.894-6.146,4.011,4.011,0,0,0-2.1-3.6,3.616,3.616,0,0,0-.01-3.565,3.672,3.672,0,0,0-3.095-1.754,3.279,3.279,0,0,0-4.186-3.991,3.29,3.29,0,0,0-.738-1.624,3.713,3.713,0,0,0-2.545-1.245q.219-3.925.441-7.85a.8.8,0,0,0-.007-.169q.114-1.627.225-3.254c.058-.841.1-1.683.175-2.524.05-.563.107-1.5.725-1.769,1.057-.457,1.825,2.148,2.1,2.758q.953,2.113,1.908,4.225a.814.814,0,0,0,1.5-.564q-1.607-5.688-3.218-11.374a.756.756,0,0,0,.162.031,36.8,36.8,0,0,1,24.775,13.462A60.039,60.039,0,0,1,86,108.819c1.608,2.845,3.562,5.59,6.587,7.039,2.754,1.32,6.133,1.438,8.534-.679,2.7-2.38,3.057-6.195,2.678-9.55a78.592,78.592,0,0,0-2.3-11.178,109.683,109.683,0,0,0-6.8-18.618,18.859,18.859,0,0,1,11.6-4.585c.151.272.3.543.446.806q1.534,2.743,2.853,5.6m-8.3-20.549a11.818,11.818,0,0,0-.643-3.751c-.177-.512-.89-.911-1.339-.41q-1.493,1.666-2.983,3.332l-5.679-.949a.753.753,0,0,0,.491-.7q.27-6.928.543-13.855a.818.818,0,0,0-.987-.822c0-.021,0-.041.006-.06l26.824-5.306q-.44,12.541-.88,25.081-7.677-1.284-15.353-2.565m16.223,4.324a.849.849,0,0,0,.717-.783q.474-13.508.95-27.017a.822.822,0,0,0-.994-.822c0-.11-.01-.219-.018-.328q13.487-2.57,26.975-5.141-.642,19.739-1.279,39.474L117.524,61.43m37.581.2q-.131,5.192-.264,10.389l-11.357-3.513,0-.126.918.188a.826.826,0,0,0,1.057-.741l1.342-41.442a.821.821,0,0,0-.994-.822H145.8l-.032-1.342,10.338-2.041q-.5,19.724-1,39.45M157,59.8c-.086.5-.175.994-.269,1.492q.345-13.53.689-27.058A85.444,85.444,0,0,1,157,59.8M50.084,48.64a.671.671,0,0,1-.212.859L45.2,53.188a.832.832,0,0,1-.481.43c-.112.042-.225.083-.337.123-.762.274-1.347-.9-.734-1.386l2.305-1.819L42.523,51.69a.811.811,0,0,1-.712.462l-.937.042c-.987.044-.947-1.331-.153-1.6l2.576-.867c-.251.014-.506.031-.757.047-1.041.065-.966-1.556.065-1.621q3.378-.209,6.759-.418a.688.688,0,0,1,.72.906M154.042,6.617q-.231-2.92-.462-5.839c-.083-1.042,1.54-1.033,1.621,0q.231,2.92.462,5.839c.083,1.042-1.539,1.033-1.621,0m13.65-4.3-2.432,2.918c-.669.8-1.81-.35-1.146-1.146l2.432-2.918c.669-.8,1.81.35,1.146,1.146m9.224,9.221L171.081,16.4c-.8.664-1.949-.478-1.146-1.146l5.835-4.866c.8-.664,1.948.477,1.146,1.146M31.7,62.652c-1.065-.349-3.278-1.058-3.623.618-.21,1.023-1.773.587-1.563-.431a2.862,2.862,0,0,1,1.945-2.082,4.242,4.242,0,0,1,2.326-.052,5.364,5.364,0,0,0-1.838-2.88c-1.1-.8-3.056-.908-3.629.612-.365.969-1.932.546-1.563-.431a3.811,3.811,0,0,1,5.135-2.056c2.318.981,3.319,3.4,3.808,5.7a.819.819,0,0,1-1,1m-1.375,4.823a3.223,3.223,0,0,1-3.979.33c-.859-.583-.047-1.987.818-1.4a1.517,1.517,0,0,0,2.055-2.225c-.629-.834.779-1.641,1.4-.818a3.2,3.2,0,0,1-.293,4.113M61.15,59.841c.757-.72,1.856.473,1.1,1.192A14.63,14.63,0,0,1,43.664,62.3c-.843-.609.026-1.981.874-1.367A13.007,13.007,0,0,0,61.15,59.841" transform="translate(0 0)"/>
  </g>
</svg>
