<?xml version="1.0" encoding="utf-8"?>
<!-- Generator: Adobe Illustrator 26.5.3, SVG Export Plug-In . SVG Version: 6.00 Build 0)  -->
<svg version="1.1" id="Layer_1" xmlns="http://www.w3.org/2000/svg" xmlns:xlink="http://www.w3.org/1999/xlink" x="0px" y="0px"
	 width="288px" height="288px" viewBox="0 0 288 288" style="enable-background:new 0 0 288 288;" xml:space="preserve">
<g>
	<rect style="fill:none;" width="288" height="288"/>
	<g id="WX-Icons_x2F_Brand_x2F_Color_x2F_31--Cold-_x40_DefaultSymbols.ICONS_x5F_Forecast_x5F_Color">
		<g id="Cold" transform="translate(94.000000, 13.000000)">
			<path id="Oval" style="fill:#288ADB;" d="M50,243.7c14.5,0,26.2-11.7,26.2-26.2S64.5,191.3,50,191.3S23.8,203,23.8,217.5
				S35.5,243.7,50,243.7z M50,233.2c-8.7,0-15.8-7.1-15.8-15.8s7.1-15.8,15.8-15.8s15.8,7.1,15.8,15.8S58.7,233.2,50,233.2z"/>
			<path style="fill:#686763;" d="M81.4,169.1v-61.5h20.8V97H81.4V70.8h20.8V60.4H81.4V34.2h20.8V23.7H81.4v-5.2
				C81.4,1.2,67.3-13,50-13S18.6,1.2,18.6,18.5v150.6c-20.8,13.5-30.8,39-24.2,63.2C1.2,257.4,24,275,50,275s49-17.6,55.6-42.7
				C112.2,208.1,102.2,182.6,81.4,169.1z M95.6,229.5c-5.5,20.6-24.2,34.9-45.6,34.9S10,250,4.4,229.5c-5.5-20.6,3.5-42.4,22-53.1
				l2.6-1.5V18.5C29.1,6.9,38.5-2.4,50-2.4S70.9,7,70.9,18.5v156.6l2.6,1.5C92.1,187.2,101.1,208.9,95.6,229.5z"/>
			<polygon id="Path_00000005244695340800659920000002201384514836371645_" style="fill:#288ADB;" points="55.3,196.4 55.3,154.6 
				44.7,154.6 44.7,196.4 			"/>
		</g>
	</g>
</g>
</svg>
