<?xml version="1.0" encoding="utf-8"?>
<!-- Generator: Adobe Illustrator 26.5.3, SVG Export Plug-In . SVG Version: 6.00 Build 0)  -->
<svg version="1.1" id="Layer_1" xmlns="http://www.w3.org/2000/svg" xmlns:xlink="http://www.w3.org/1999/xlink" x="0px" y="0px"
	 width="288px" height="288px" viewBox="0 0 288 288" style="enable-background:new 0 0 288 288;" xml:space="preserve">
<g>
	<rect style="fill:none;" width="288" height="288"/>
	<g id="WX-Icons_x2F_Brand_x2F_Color_x2F_32--Windy-_x40_DefaultSymbols.ICONS_x5F_Forecast_x5F_Color">
		<g id="Windy" transform="translate(0.000000, 54.000000)">
			<path id="Path" style="fill:#BABABA;" d="M215.9,74.4c0-17.2,14-31.2,31.2-31.2s31.2,14,31.2,31.2s-14,31.2-31.2,31.2H71.9v9.6
				h175.2c22.5,0,40.8-18.3,40.8-40.8s-18.3-40.8-40.8-40.8s-40.8,18.3-40.8,40.8H215.9z"/>
			<path id="Path_00000157304781700716972320000003300358849862962319_" style="fill:#BABABA;" d="M105.6,38.4
				c0-12.6,7.6-24,19.3-28.8s25.1-2.1,34,6.8c8.9,8.9,11.6,22.3,6.7,34c-4.8,11.6-16.2,19.2-28.8,19.2L0,69.6v9.6h136.8
				c16.5,0,31.4-9.9,37.7-25.1s2.9-32.8-8.8-44.5s-29.2-15.2-44.4-8.9C106,7,96,21.9,96,38.4H105.6z"/>
			<path id="Path_00000002376706357395980760000018203280186737763978_" style="fill:#BABABA;" d="M220.8,182.4
				c0-10.8-4.3-21.2-11.9-28.8s-18-11.9-28.8-11.9H0v9.6h180c8.3,0,16.2,3.3,22,9.1c5.8,5.8,9.1,13.8,9.1,22L220.8,182.4z"/>
		</g>
	</g>
</g>
</svg>
