<?xml version="1.0" encoding="utf-8"?>
<!-- Generator: Adobe Illustrator 26.5.3, SVG Export Plug-In . SVG Version: 6.00 Build 0)  -->
<svg version="1.1" id="Layer_1" xmlns="http://www.w3.org/2000/svg" xmlns:xlink="http://www.w3.org/1999/xlink" x="0px" y="0px"
	 width="288px" height="288px" viewBox="0 0 288 288" style="enable-background:new 0 0 288 288;" xml:space="preserve">
<g>
	<rect style="fill:none;" width="288" height="288"/>
	<g id="WX-Icons_x2F_Brand_x2F_Color_x2F_33--Clear-Moon-_x40_DefaultSymbols.ICONS_x5F_Forecast_x5F_Color">
		<g id="Clear" transform="translate(42.000000, 35.000000)">
			<path id="Path" style="fill:#686763;" d="M109.5,140.8c-24.3-24.3-38-57.2-38-91.5c0-27,8.4-53.1,24.2-75L90-35
				C23.8-24.4-26.4,30.1-31.7,96.8s36,128.3,99.6,149s133.2-4.8,168.3-61.9l-6.4-8.8c-9.4,2.2-18.9,3.3-28.6,3.4
				C166.9,178.7,134,165.1,109.5,140.8z M71.5,234.8C13,215.7-24.7,159.2-19.9,97.7C-15.4,41,24.4-6,78.4-20.4
				C66.2,0.7,59.8,24.8,59.8,49.3c0,37.5,14.9,73.5,41.4,99.9s62.6,41.3,100.1,41.2l0,0c5.7,0,11.3-0.4,17-1.1
				C184.3,233.5,125.6,252.3,71.5,234.8z"/>
		</g>
	</g>
</g>
</svg>
