<?xml version="1.0" encoding="utf-8"?>
<!-- Generator: Adobe Illustrator 26.5.3, SVG Export Plug-In . SVG Version: 6.00 Build 0)  -->
<svg version="1.1" id="Layer_1" xmlns="http://www.w3.org/2000/svg" xmlns:xlink="http://www.w3.org/1999/xlink" x="0px" y="0px"
	 width="286px" height="288px" viewBox="0 0 286 288" style="enable-background:new 0 0 286 288;" xml:space="preserve">
<g>
	<rect style="fill:none;" width="288" height="288"/>
	<g id="WX-Icons_x2F_Brand_x2F_Color_x2F_36--Intermittent-Clouds-Night-_x40_DefaultSymbols.ICONS_x5F_Forecast_x5F_Color">
		<g id="Intermittent-Clouds_Night" transform="translate(6.000000, 17.000000)">
			<path id="Path" style="fill:#BABABA;" d="M247.6,33.2c15.1,0,27.3,12.2,27.3,27.3s-12.2,27.3-27.3,27.3h-63
				c-10.6,0-19.1-8.5-19.1-19.1s8.5-19.1,19.1-19.1h0.1c2.1-11.6,10.4-21.2,21.8-25.1c12.3-4.2,25.7-0.6,34.4,8.6
				C240.9,33.2,247.6,33.2,247.6,33.2z M184.7,60.6c-4.6,0-8.2,3.7-8.2,8.2s3.7,8.2,8.2,8.2h63c9,0,16.3-7.3,16.3-16.3
				s-7.3-16.3-16.3-16.3h-11.9l-1.6-2c-5.7-7.2-15.3-10-24.1-7.1c-8.7,2.9-14.7,11.1-14.9,20.3l-0.1,5.4h-10.5V60.6z"/>
			<path id="Path_00000062167186544906886730000015037773957204457141_" style="fill:#686763;" d="M139.3,144.2
				c27.7,41.5,76.3,63.3,125.1,57.2c-33.6,43.5-92.3,60.3-144.4,39.7l-4.1,10.1c61,24.2,130.5,1.1,165-54.6l-5.9-8.2
				c-48.6,11.2-99-8.9-126.7-50.3s-26.9-95.7,1.9-136.4L145-6.8c-39.6,5.9-74.6,29.1-95.3,63.5s-25,76.1-11.8,114l10.4-3.7
				c-12.2-34.8-8.2-73.2,10.8-104.7c16.8-27.9,44-47.9,75.3-55.8C110,49.2,111.5,102.6,139.3,144.2z"/>
			<path id="Path_00000052815378674763481940000012441961265595468726_" style="fill:#BABABA;" d="M26.6,170.5v-0.7h7.7
				c13.1-14.5,33.6-20,52.3-13.7c17.8,6,30.4,21.5,33,39.9h2.1h0.1c14.8,0.7,26.5,13,26.5,27.9c0,14.9-11.7,27.1-26.5,27.9h-0.1
				H31.9h-0.1C10,250.6-7,232.6-7,210.8C-7,190.8,7.3,173.9,26.6,170.5z M32.3,180.7c-15.9,0.9-28.4,14.1-28.4,30s12.4,29.1,28.3,30
				h89.2c9-0.5,16-7.9,16-16.9s-7-16.4-16-16.9h-12.2l-0.1-5.3c-0.4-16-10.9-30-26-35.1s-31.9-0.2-42,12.2l-1.6,2h-6.3L32.3,180.7z"
				/>
		</g>
	</g>
</g>
</svg>
