<?xml version="1.0" encoding="utf-8"?>
<!-- Generator: Adobe Illustrator 26.5.3, SVG Export Plug-In . SVG Version: 6.00 Build 0)  -->
<svg version="1.1" id="Layer_1" xmlns="http://www.w3.org/2000/svg" xmlns:xlink="http://www.w3.org/1999/xlink" x="0px" y="0px"
	 width="288px" height="288px" viewBox="0 0 288 288" style="enable-background:new 0 0 288 288;" xml:space="preserve">
<g>
	<rect style="fill:none;" width="288" height="288"/>
	<g id="WX-Icons_x2F_Brand_x2F_Color_x2F_38--Mostly-Cloudy-Night-_x40_DefaultSymbols.ICONS_x5F_Forecast_x5F_Color">
		<g id="Mostly-Cloudy_1" transform="translate(16.000000, 50.000000)">
			<path id="Path" style="fill:#686763;" d="M191.7,71.8c14.4,21.6,38.8,33.6,64.1,32.5c-7.9,8.6-17.9,14.9-29.1,18.4l3.1,10
				c17.6-5.3,32.6-16.9,42.2-32.6l-5.7-7.9c-25.3,5.7-51.6-4.8-66-26.4s-14.1-49.8,1-71.1l-5-8.2c-33.5,5-59.5,31.8-63.6,65.4
				l10.5,1.3c3.1-25,20.1-45.6,43.2-53.5C175.6,22.8,177.3,50.2,191.7,71.8z"/>
			<path id="Path_00000005970412858153981200000006386320935727474852_" style="fill:#BABABA;" d="M201.9,112.2
				c24.6,0,44.6,20,44.6,44.6s-20,44.6-44.6,44.6H49.5l0,0C13.3,201.3-16,171.9-16,135.7c0.1-36.2,29.6-65.5,65.8-65.4h7.7
				c20.7-22.9,53.1-31.6,82.7-22c28.8,9.4,49.5,34.4,53.7,64H201.9z M49.5,190.9L49.5,190.9h152.3c18.9,0,34.1-15.3,34.1-34.1
				s-15.3-34.1-34.1-34.1h-17.6l-0.3-4.8c-2.1-27.6-20.7-51.1-47-59.7S81.8,57.9,63.9,79l-1.5,1.9H60H49.9
				c-30.5-0.1-55.3,24.4-55.3,55C-5.5,166.2,19.1,190.9,49.5,190.9z"/>
		</g>
	</g>
</g>
</svg>
