<?xml version="1.0" encoding="utf-8"?>
<!-- Generator: Adobe Illustrator 26.5.3, SVG Export Plug-In . SVG Version: 6.00 Build 0)  -->
<svg version="1.1" id="Layer_1" xmlns="http://www.w3.org/2000/svg" xmlns:xlink="http://www.w3.org/1999/xlink" x="0px" y="0px"
	 width="288px" height="288px" viewBox="0 0 288 288" style="enable-background:new 0 0 288 288;" xml:space="preserve">
<g>
	<rect style="fill:none;" width="288" height="288"/>
	<g id="WX-Icons_x2F_Brand_x2F_Color_x2F_39-Partly-Cloudy-with-Showers-Night-_x40_DefaultSymbols.ICONS_x5F_Forecast_x5F_Color">
		<g id="Partly-cloudy-w--showers" transform="translate(8.000000, 10.000000)">
			<polygon id="Path" style="fill:#288ADB;" points="24.2,256.1 46.4,218.2 37.7,213.2 15.6,251.1 			"/>
			<polygon id="Path_00000174580980546197554080000008949793221926575023_" style="fill:#288ADB;" points="99.1,256.1 119.6,221.1 
				110.9,215.9 90.3,251.1 			"/>
			<polygon id="Path_00000126317346913388365570000016728927485044983169_" style="fill:#288ADB;" points="50.7,275.3 84,218.2 
				75.4,213.2 42,270.3 			"/>
			<path id="Path_00000146482070710787965820000001257607493046585249_" style="fill:#686763;" d="M184.9,228.4
				c-35.6,3.4-70.9-10.1-95.2-36.3l-7.4,6.8c26.4,28.6,64.7,43.2,103.5,39.5s73.6-25.3,94.2-58.4l-5.3-7.6
				c-32.3,7.2-66.2-0.4-92.5-20.6l-6.2,7.9c25.4,19.6,57.3,28.2,88.8,24.5C245.5,209.3,216.6,225.3,184.9,228.4z"/>
			<path id="Path_00000065775834676478018340000007466282367844444069_" style="fill:#686763;" d="M138.5,111.3l9.2-3.9
				c-14.9-35.3-10.3-75.7,12-106.8l-4.8-7.9C99.7,1,56.8,45.2,50.2,100.7l10,1.2C65.7,54.8,99.8,16.5,145,5
				C126.6,37.2,123.9,76.6,138.5,111.3z"/>
			<path id="Path_00000103267494995571197000000001968441251375077545_" style="fill:#BABABA;" d="M70.3,87.8
				c-20.8,6.8-35.9,24.6-39.2,46.1h-4.5c-12.2-0.5-23.6,5.8-29.9,16.2s-6.3,23.6,0,34.1c6.3,10.5,17.8,16.7,29.9,16.2h109.4h0.2
				c26.1-0.9,46.7-22.3,46.7-48.4s-20.6-47.4-46.7-48.4h-0.2h-5.1C115.5,87.1,91.9,80.7,70.3,87.8z M26.5,190.4h-0.2
				c-8.5,0.4-16.6-4-20.9-11.3s-4.4-16.5,0-23.8c4.4-7.3,12.4-11.7,20.9-11.3h0.2h13.8l0.3-4.6C42,120,54.9,103.4,73.4,97.4
				c18.5-6,38.7-0.2,51.1,14.6l1.5,1.7h9.7c20.6,0.7,37,17.7,37,38.3s-16.3,37.6-37,38.3H26.5z M135.9,113.7h-0.2
				C135.7,113.7,135.7,113.7,135.9,113.7L135.9,113.7z"/>
		</g>
	</g>
</g>
</svg>
